# xmcd
#
# Track frame offsets: 
#        150
#        11025
#        24271
#        35538
#        50397
#        61935
#        73345
#        84457
#        96580
#        107990
#        120406
#        132959
#        145100
#        162528
#        173456
#        184887
#        199360
#        207563
#        219302
#        232037
#
# Disc length: 3232 seconds
#
# Revision: 1
# Processed by: cddbd v1.5.2PL0 Copyright (c) Steve Scherf et al.
# Submitted via: ExactAudioCopy v0.99pb5
#
DISCID=280c9e14
DTITLE=Tom Jones - Tom Jones Sings Country
DYEAR=1998
DGENRE=Country
TTITLE0=Green Green Grass Of Home
TTITLE1=He Stopped loving Her Today
TTITLE2=Streets Of Laredo
TTITLE3=I Can't Stop Loving You
TTITLE4=You Win Again
TTITLE5=Four Walls
TTITLE6=Middle Age Crazy
TTITLE7=Funny How Time Slips Away
TTITLE8=I'm So Lonesome I Could Cry
TTITLE9=Let Your Love Flow
TTITLE10=Behind Closed Doors
TTITLE11=I Love A Rainy Night
TTITLE12=She Believes In Me
TTITLE13=Drivin' My Life Away
TTITLE14=The Most Beautiful Girl In The World
TTITLE15=Help Me Make It Through The Night
TTITLE16=On The Road Again
TTITLE17=Make The World Go Away
TTITLE18=Born To Lose
TTITLE19=Release Me
EXTD=
EXTT0=
EXTT1=
EXTT2=
EXTT3=
EXTT4=
EXTT5=
EXTT6=
EXTT7=
EXTT8=
EXTT9=
EXTT10=
EXTT11=
EXTT12=
EXTT13=
EXTT14=
EXTT15=
EXTT16=
EXTT17=
EXTT18=
EXTT19=
PLAYORDER=
